<?xml version="1.0" standalone="no"?><!DOCTYPE svg PUBLIC "-//W3C//DTD SVG 1.1//EN" "http://www.w3.org/Graphics/SVG/1.1/DTD/svg11.dtd"><svg t="1551833690522" class="icon" style="" viewBox="0 0 1024 1024" version="1.1" xmlns="http://www.w3.org/2000/svg" p-id="3113" xmlns:xlink="http://www.w3.org/1999/xlink" width="48" height="48"><defs><style type="text/css"></style></defs><path d="M916 956l-320 0c-22.4 0-40-17.6-40-40l0-320c0-22.4 17.6-40 40-40l320 0c22.4 0 40 17.6 40 40l0 320C956 938.4 938.4 956 916 956zM763.2 498.4c-12.8 12.8-33.6 12.8-45.6 0L533.6 315.2c-12.8-12.8-12.8-33.6 0-45.6l183.2-183.2c12.8-12.8 33.6-12.8 45.6 0l183.2 183.2c12.8 12.8 12.8 33.6 0 45.6L763.2 498.4zM436 956l-320 0c-22.4 0-40-17.6-40-40l0-320c0-22.4 17.6-40 40-40l320 0c22.4 0 40 17.6 40 40l0 320C476 938.4 458.4 956 436 956zM436 476l-320 0c-22.4 0-40-17.6-40-40l0-320c0-22.4 17.6-40 40-40l320 0c22.4 0 40 17.6 40 40l0 320C476 458.4 458.4 476 436 476z" fill="#1afa29" p-id="3114"></path></svg>